<svg width="1448" height="966" viewBox="0 0 1448 966" fill="none" xmlns="http://www.w3.org/2000/svg">
<g clip-path="url(#clip0_6_396)">
<path d="M548.973 606.077H504.503V684.125H396.682V606.077H236V526.35L403.814 280.875H504.503V524.671H548.973V606.077ZM396.682 524.671V477.674C396.682 468.862 397.102 457.113 397.521 442.007C398.36 426.901 398.78 419.348 399.199 418.508H396.262C389.969 432.775 382.837 445.783 374.866 458.372L330.395 524.671H396.682Z" fill="#B7DFFF"/>
<path d="M868.659 483.129C868.659 554.464 856.493 606.916 832.999 640.066C809.085 673.215 772.586 690 723.08 690C674.834 690 638.754 672.796 614.001 637.968C589.668 603.14 577.502 551.527 577.502 483.129C577.502 411.375 589.249 358.923 613.582 325.354C637.495 291.785 673.995 275 723.5 275C771.327 275 807.827 292.624 832.16 327.452C856.493 362.28 868.659 413.893 868.659 483.129ZM685.742 483.129C685.742 528.868 688.679 560.339 694.133 577.123C700.006 594.328 709.236 602.72 722.661 602.72C736.086 602.72 745.735 593.908 751.609 576.284C757.063 558.66 760 527.609 760 483.129C760 438.231 757.063 407.179 751.609 389.135C745.735 371.092 736.506 362.28 723.08 362.28C709.655 362.28 700.006 371.092 694.552 388.296C688.679 405.501 685.742 436.972 685.742 483.129Z" fill="#B7DFFF"/>
<path d="M1211 606.077H1166.53V684.125H1058.71V606.077H898.027V526.35L1065.84 280.875H1166.53V524.671H1211V606.077ZM1059.13 524.671V477.674C1059.13 468.862 1059.55 457.113 1059.97 442.007C1060.81 426.901 1061.23 419.348 1061.65 418.508H1058.71C1052.42 432.775 1045.28 445.783 1037.31 458.372L992.422 525.091H1059.13V524.671Z" fill="#B7DFFF"/>
</g>
<g clip-path="url(#clip1_6_396)">
<path d="M829.274 494.139C862.336 494.139 889.138 467.334 889.138 434.267C889.138 401.2 862.336 374.394 829.274 374.394C796.211 374.394 769.409 401.2 769.409 434.267C769.409 467.334 796.211 494.139 829.274 494.139Z" fill="white"/>
<path d="M632.318 494.139C665.38 494.139 692.182 467.334 692.182 434.267C692.182 401.2 665.38 374.394 632.318 374.394C599.255 374.394 572.453 401.2 572.453 434.267C572.453 467.334 599.255 494.139 632.318 494.139Z" fill="white"/>
<path d="M667.592 385.945C673.72 395.373 677.255 406.531 677.255 418.631C677.255 451.71 650.466 478.504 617.391 478.504C604.192 478.504 592.015 474.182 582.116 466.953C592.801 483.375 611.263 494.14 632.318 494.14C665.392 494.14 692.182 467.346 692.182 434.267C692.104 414.467 682.44 396.866 667.592 385.945Z" fill="#EFEFEF"/>
<path d="M864.47 385.945C870.598 395.373 874.133 406.531 874.133 418.631C874.133 451.71 847.343 478.504 814.268 478.504C801.07 478.504 788.893 474.182 778.994 466.953C789.678 483.375 808.141 494.14 829.195 494.14C862.27 494.14 889.06 467.346 889.06 434.267C889.06 414.467 879.397 396.866 864.47 385.945Z" fill="#EFEFEF"/>
<path d="M632.318 496.89C597.829 496.89 569.703 468.76 569.703 434.267C569.703 399.773 597.829 371.644 632.318 371.644C666.807 371.644 694.932 399.773 694.932 434.267C694.932 468.76 666.885 496.89 632.318 496.89ZM632.318 377.144C600.814 377.144 575.203 402.759 575.203 434.267C575.203 465.775 600.814 491.389 632.318 491.389C663.821 491.389 689.433 465.775 689.433 434.267C689.433 402.759 663.821 377.144 632.318 377.144Z" fill="#231F20"/>
<path d="M630.746 450.139C641.724 450.139 650.623 441.239 650.623 430.26C650.623 419.281 641.724 410.381 630.746 410.381C619.769 410.381 610.87 419.281 610.87 430.26C610.87 441.239 619.769 450.139 630.746 450.139Z" fill="#231F20"/>
<path d="M625.876 434.817C630.388 434.817 634.046 431.159 634.046 426.645C634.046 422.132 630.388 418.474 625.876 418.474C621.363 418.474 617.705 422.132 617.705 426.645C617.705 431.159 621.363 434.817 625.876 434.817Z" fill="white"/>
<path d="M829.274 450.139C840.251 450.139 849.15 441.239 849.15 430.26C849.15 419.281 840.251 410.381 829.274 410.381C818.296 410.381 809.397 419.281 809.397 430.26C809.397 441.239 818.296 450.139 829.274 450.139Z" fill="#231F20"/>
<path d="M824.403 434.817C828.915 434.817 832.573 431.159 832.573 426.645C832.573 422.132 828.915 418.474 824.403 418.474C819.89 418.474 816.232 422.132 816.232 426.645C816.232 431.159 819.89 434.817 824.403 434.817Z" fill="white"/>
<path d="M829.274 496.89C794.785 496.89 766.659 468.76 766.659 434.267C766.659 399.773 794.785 371.644 829.274 371.644C863.763 371.644 891.888 399.773 891.888 434.267C891.888 468.76 863.841 496.89 829.274 496.89ZM829.274 377.144C797.77 377.144 772.159 402.759 772.159 434.267C772.159 465.775 797.77 491.389 829.274 491.389C860.777 491.389 886.389 465.775 886.389 434.267C886.389 402.759 860.777 377.144 829.274 377.144Z" fill="#231F20"/>
<path d="M541.657 361.43C553.755 369.287 553.441 346.894 575.831 331.415C594.451 318.529 611.97 325.915 612.049 315.307C612.127 304.7 590.837 297.943 562.711 315.072C541.735 327.801 527.594 352.237 541.657 361.43Z" fill="#231F20"/>
<path d="M906.029 355.458C893.695 362.923 894.716 340.608 872.876 324.343C854.65 310.829 836.973 317.665 837.209 307.057C837.444 296.45 858.97 290.4 886.546 308.393C907.051 321.908 920.328 346.737 906.029 355.458Z" fill="#231F20"/>
<path d="M738.927 634.549C693.518 634.628 641.824 632.899 642.688 606.499C643.552 580.098 688.568 518.497 738.927 521.404C789.286 524.39 843.965 577.898 834.066 607.599C824.167 637.378 763.596 634.549 738.927 634.549Z" fill="#231F20"/>
<path d="M696.817 665.586C714.808 659.771 734.292 658.75 752.832 662.521C758.175 663.621 763.36 665.114 768.466 666.921C769.409 667.236 770.509 666.529 770.745 665.664C771.059 664.643 770.43 663.779 769.488 663.386C751.104 656.707 731.149 655.057 711.901 658.2C706.481 659.064 701.138 660.4 695.953 662.05C693.596 662.757 694.539 666.293 696.817 665.586Z" fill="#231F20"/>
</g>
<defs>
<clipPath id="clip0_6_396">
<rect width="975" height="415" fill="white" transform="translate(236 275)"/>
</clipPath>
<clipPath id="clip1_6_396">
<rect width="376" height="370" fill="white" transform="translate(536 297)"/>
</clipPath>
</defs>
</svg>
